<?xml version="1.0" encoding="UTF-8"?>
<svg version="1.1" xmlns="http://www.w3.org/2000/svg" width="500" height="500">
<path d="M0 0 C5.10230466 2.8400388 8.25467452 6.7814886 10.6875 12.0625 C10.6875 13.0525 10.6875 14.0425 10.6875 15.0625 C11.3475 15.0625 12.0075 15.0625 12.6875 15.0625 C12.7803125 13.763125 12.7803125 13.763125 12.875 12.4375 C14.21170767 6.88502197 17.38035111 4.02979018 21.8125 0.75 C27.58101174 -2.63586559 33.15205711 -2.51122209 39.6875 -1.9375 C46.36478445 -0.17262852 50.7817974 4.54923285 54.6875 10.0625 C56.80209088 16.40627263 56.89113234 24.42401571 54.0625 30.5625 C50.4910636 36.514894 45.22880417 39.99108701 38.6875 42.0625 C31.78333783 42.9890815 26.44961749 42.00703681 20.6875 38.0625 C16.51586591 34.55453497 14.20234615 30.81276494 11.6875 26.0625 C11.40777344 26.57039063 11.12804687 27.07828125 10.83984375 27.6015625 C7.26276445 33.74355718 3.32815354 38.28262494 -3.125 41.4375 C-10.79724344 42.94186146 -16.59592421 42.78115253 -23.33984375 38.546875 C-28.8543534 34.39734299 -32.60545257 28.83938142 -33.6328125 21.8984375 C-33.92893062 16.15374595 -32.71075042 11.71971228 -29.3125 7.0625 C-21.08876228 -1.65912581 -11.45583258 -5.01841609 0 0 Z " fill="#060606" transform="translate(146.3125,190.9375)"/>
<path d="M0 0 C1.22560222 0.72551506 2.44830855 1.45594592 3.66796875 2.19140625 C9.8778552 4.83805527 17.30898096 3.69484199 23.50024414 1.56665039 C24.30450333 1.2921254 25.10876251 1.0176004 25.93739319 0.73475647 C26.547155 0.52322433 27.15691681 0.3116922 27.78515625 0.09375 C27.85917993 5.75371416 27.91369798 11.41339811 27.94995117 17.07373047 C27.9650602 19.00021267 27.98554839 20.92666035 28.01147461 22.85302734 C28.0477655 25.61825057 28.06486104 28.38302004 28.078125 31.1484375 C28.09360886 32.0130661 28.10909271 32.8776947 28.12504578 33.76852417 C28.12573242 36.19482422 28.12573242 36.19482422 27.78515625 40.09375 C24.18160511 42.49611743 22.53586073 42.35184643 18.25 42.3684082 C17.591138 42.37351913 16.932276 42.37863007 16.25344849 42.38389587 C14.07642526 42.3977917 11.89971854 42.39683539 9.72265625 42.39453125 C8.20955284 42.39841779 6.69645051 42.40275237 5.18334961 42.40751648 C2.01249656 42.41497835 -1.15824513 42.41468739 -4.32910156 42.40942383 C-8.39477409 42.40362474 -12.45999171 42.42057055 -16.52558899 42.4437685 C-19.64997019 42.45849048 -22.77424139 42.45937974 -25.89865112 42.45625877 C-27.39778546 42.45677262 -28.89692586 42.4620222 -30.39602661 42.47207069 C-32.49088242 42.4843906 -34.58484627 42.47767169 -36.6796875 42.46606445 C-37.87198975 42.46669388 -39.06429199 42.4673233 -40.29272461 42.4679718 C-43.21484375 42.09375 -43.21484375 42.09375 -45.102005 40.81552124 C-47.1310778 37.67616327 -46.57470106 33.88784335 -46.5078125 30.26953125 C-46.50356766 29.40813034 -46.49932281 28.54672943 -46.49494934 27.65922546 C-46.47815623 24.90791569 -46.44050331 22.15733838 -46.40234375 19.40625 C-46.38729771 17.5410262 -46.37360916 15.67579093 -46.36132812 13.81054688 C-46.32825068 9.23799902 -46.27646435 4.6659987 -46.21484375 0.09375 C-45.45171875 0.403125 -44.68859375 0.7125 -43.90234375 1.03125 C-37.46544995 3.57606848 -30.37684523 4.57142184 -23.6953125 2.19921875 C-22.91800781 1.83441406 -22.14070313 1.46960938 -21.33984375 1.09375 C-14.91531247 -1.80765122 -6.65461123 -2.72287444 0 0 Z " fill="#050505" transform="translate(167.21484375,231.90625)"/>
<path d="M0 0 C2.10546875 0.80859375 2.10546875 0.80859375 3.10546875 1.80859375 C3.2065013 4.60852972 3.24516963 7.38328019 3.23828125 10.18359375 C3.23971634 11.44308838 3.23971634 11.44308838 3.24118042 12.72802734 C3.24186223 14.5068367 3.24000792 16.28564852 3.23583984 18.06445312 C3.23049158 20.79693151 3.2357848 23.52924551 3.2421875 26.26171875 C3.24152672 27.98567745 3.24024556 29.70963604 3.23828125 31.43359375 C3.24030548 32.25649902 3.24232971 33.0794043 3.24441528 33.92724609 C3.22041929 39.69364321 3.22041929 39.69364321 2.10546875 40.80859375 C-0.54537111 40.80859375 -2.35580983 40.49242444 -4.89453125 39.80859375 C-5.92835938 39.56109375 -6.9621875 39.31359375 -8.02734375 39.05859375 C-11.86313078 37.60770504 -14.82248892 36.41780458 -16.89453125 32.80859375 C-18.47529871 24.63196281 -17.6133208 16.05163543 -16.89453125 7.80859375 C-14.67498474 6.43601898 -12.44617716 5.08600224 -10.20703125 3.74609375 C-9.58119141 3.35615234 -8.95535156 2.96621094 -8.31054688 2.56445312 C-5.37064553 0.82513976 -3.45782834 -0.22865532 0 0 Z " fill="#030303" transform="translate(215.89453125,230.19140625)"/>
<path d="M0 0 C4.56669669 3.7838344 6.93805318 7.16836369 7.5 13.125 C7.07011266 18.19767063 4.87123932 20.85936239 1.625 24.625 C-1.63572794 27.31864482 -5.50919375 27.14601862 -9.52734375 27.09375 C-14.08208518 26.53316644 -16.7544167 24.01166108 -19.6875 20.6875 C-21.37734251 16.36901358 -21.47210983 12.3857948 -20.8125 7.8125 C-16.58271836 -0.80372187 -8.85943037 -3.74064838 0 0 Z " fill="#F6F6F6" transform="translate(186.8125,302.1875)"/>
<path d="M0 0 C1.98 0 3.96 0 6 0 C7.8984375 1.96875 7.8984375 1.96875 9.375 4.5 C9.87773437 5.3353125 10.38046875 6.170625 10.8984375 7.03125 C11.26195312 7.6809375 11.62546875 8.330625 12 9 C14.40072955 6.11912454 16.47291037 3.43595166 18 0 C20.31 0 22.62 0 25 0 C25 8.58 25 17.16 25 26 C23.02 26 21.04 26 19 26 C18.505 19.565 18.505 19.565 18 13 C17.4225 13.99 16.845 14.98 16.25 16 C15.5075 16.99 14.765 17.98 14 19 C12.68 19 11.36 19 10 19 C9.01 17.02 8.02 15.04 7 13 C6.67 17.29 6.34 21.58 6 26 C4.02 26 2.04 26 0 26 C0 17.42 0 8.84 0 0 Z " fill="#090909" transform="translate(211,351)"/>
<path d="M0 0 C1.98 0 3.96 0 6 0 C8.08203125 2.1171875 8.08203125 2.1171875 9.8125 4.875 C10.39644531 5.77992188 10.98039063 6.68484375 11.58203125 7.6171875 C12.43528678 9.05103288 13.25381536 10.50763072 14 12 C14.33 8.04 14.66 4.08 15 0 C16.98 0 18.96 0 21 0 C21 8.58 21 17.16 21 26 C19.35 26 17.7 26 16 26 C12.28094081 22.28094081 9.72959383 17.47350101 7 13 C6.67 17.29 6.34 21.58 6 26 C4.02 26 2.04 26 0 26 C0 17.42 0 8.84 0 0 Z " fill="#060606" transform="translate(159,351)"/>
<path d="M0 0 C2.74192622 1.62560729 5.03756639 3.47949934 7 6 C7 6.99 7 7.98 7 9 C4.125 9.125 4.125 9.125 1 9 C0.34 8.34 -0.32 7.68 -1 7 C-2.98 7 -4.96 7 -7 7 C-7 11.62 -7 16.24 -7 21 C-5.35 21 -3.7 21 -2 21 C-1.34 20.01 -0.68 19.02 0 18 C-1.32 18 -2.64 18 -4 18 C-4 16.02 -4 14.04 -4 12 C-2.35425434 11.97311849 -0.70838587 11.95365877 0.9375 11.9375 C1.85402344 11.92589844 2.77054687 11.91429687 3.71484375 11.90234375 C6 12 6 12 7 13 C7.58378378 20.00540541 7.58378378 20.00540541 5.3125 23.875 C1.49322774 27.38460154 -0.788989 28 -6 28 C-9.49688756 27.37744805 -11.99392055 26.27461393 -14.1484375 23.27734375 C-16.15152427 17.92046491 -16.03503922 11.54659253 -15 6 C-10.68138198 0.8078751 -6.81541956 -1.32148171 0 0 Z " fill="#141414" transform="translate(282,350)"/>
<path d="M0 0 C3.8053125 -0.12375 3.8053125 -0.12375 7.6875 -0.25 C8.87218872 -0.30462402 8.87218872 -0.30462402 10.08081055 -0.36035156 C13.8284838 -0.41910886 15.67370818 -0.19346884 18.984375 1.76953125 C21 4 21 4 21.5625 7.9375 C21.32899689 11.96731175 19.8686493 14.1313507 17 17 C17.66 17.928125 18.32 18.85625 19 19.8125 C21 23 21 23 21 26 C18.375 26.5 18.375 26.5 15 26 C11.33515506 22.68182959 9.1535445 19.43308201 8.625 14.5 C8.74875 13.675 8.8725 12.85 9 12 C10.65 11.34 12.3 10.68 14 10 C13.67 8.68 13.34 7.36 13 6 C10.69 5.67 8.38 5.34 6 5 C6 11.93 6 18.86 6 26 C4.02 26 2.04 26 0 26 C0 17.42 0 8.84 0 0 Z " fill="#080808" transform="translate(347,351)"/>
<path d="M0 0 C13 0 13 0 18 4 C19.125 7.4375 19.125 7.4375 19 11 C16.5625 13.75 16.5625 13.75 14 16 C14 19.44360632 14.79591532 20.74795392 16.5 23.6875 C16.9640625 24.49574219 17.428125 25.30398438 17.90625 26.13671875 C18.2671875 26.75160156 18.628125 27.36648438 19 28 C17.35 28 15.7 28 14 28 C13.16151196 26.54462432 12.32936066 25.08559627 11.5 23.625 C11.0359375 22.81289063 10.571875 22.00078125 10.09375 21.1640625 C9 19 9 19 9 17 C7.35 17 5.7 17 4 17 C4 20.63 4 24.26 4 28 C2.68 28 1.36 28 0 28 C0 18.76 0 9.52 0 0 Z " fill="#111111" transform="translate(198,301)"/>
<path d="M0 0 C1.4540625 0.0309375 1.4540625 0.0309375 2.9375 0.0625 C5.81193461 5.3691485 8.06620097 10.79748833 10.1875 16.4375 C10.45771973 17.15164063 10.72793945 17.86578125 11.00634766 18.6015625 C12.9375 23.80760149 12.9375 23.80760149 12.9375 26.0625 C10.0625 26.25 10.0625 26.25 6.9375 26.0625 C6.2775 25.0725 5.6175 24.0825 4.9375 23.0625 C2.51228506 22.48060734 2.51228506 22.48060734 -0.1875 22.375 C-1.09757812 22.30925781 -2.00765625 22.24351562 -2.9453125 22.17578125 C-3.64398438 22.13839844 -4.34265625 22.10101563 -5.0625 22.0625 C-5.3925 23.3825 -5.7225 24.7025 -6.0625 26.0625 C-8.0425 26.0625 -10.0225 26.0625 -12.0625 26.0625 C-10.97327641 19.96284791 -9.1746961 14.34623884 -7 8.5625 C-6.7304248 7.84384766 -6.46084961 7.12519531 -6.18310547 6.38476562 C-3.77013641 0.07694156 -3.77013641 0.07694156 0 0 Z " fill="#0D0D0D" transform="translate(331.0625,350.9375)"/>
<path d="M0 0 C1.4540625 0.0309375 1.4540625 0.0309375 2.9375 0.0625 C7.16867233 7.89800431 11.9375 17.05751789 11.9375 26.0625 C10.2875 26.0625 8.6375 26.0625 6.9375 26.0625 C6.6075 24.7425 6.2775 23.4225 5.9375 22.0625 C2.3075 22.0625 -1.3225 22.0625 -5.0625 22.0625 C-5.3925 23.3825 -5.7225 24.7025 -6.0625 26.0625 C-8.0425 26.0625 -10.0225 26.0625 -12.0625 26.0625 C-11.40196516 20.45712794 -9.53971446 15.49477973 -7.5625 10.25 C-7.08103516 8.94385742 -7.08103516 8.94385742 -6.58984375 7.61132812 C-3.7828973 0.07720199 -3.7828973 0.07720199 0 0 Z " fill="#0C0C0C" transform="translate(252.0625,350.9375)"/>
<path d="M0 0 C1.98 0 3.96 0 6 0 C6 3.3 6 6.6 6 10 C8.97 10 11.94 10 15 10 C15 6.7 15 3.4 15 0 C16.98 0 18.96 0 21 0 C21 8.58 21 17.16 21 26 C19.02 26 17.04 26 15 26 C15 22.7 15 19.4 15 16 C12.03 16 9.06 16 6 16 C6 19.3 6 22.6 6 26 C4.02 26 2.04 26 0 26 C0 17.42 0 8.84 0 0 Z " fill="#050505" transform="translate(294,351)"/>
<path d="M0 0 C6.27 0 12.54 0 19 0 C19 1.65 19 3.3 19 5 C14.71 5 10.42 5 6 5 C6 6.65 6 8.3 6 10 C9.96 10 13.92 10 18 10 C18 11.65 18 13.3 18 15 C14.04 15 10.08 15 6 15 C6 16.65 6 18.3 6 20 C10.62 20 15.24 20 20 20 C20 21.98 20 23.96 20 26 C13.4 26 6.8 26 0 26 C0 17.42 0 8.84 0 0 Z " fill="#050505" transform="translate(186,351)"/>
<path d="M0 0 C2.91843445 2.626591 4.94517315 5.66976339 7 9 C7 9.66 7 10.32 7 11 C8.32258472 11.68774405 9.65986503 12.34711373 11 13 C12.03125 13.53625 13.0625 14.0725 14.125 14.625 C19.63041182 16.90229188 25.14966196 17.10414816 30.72265625 14.9453125 C33.20468316 13.70978217 35.60117091 12.38879579 38 11 C39.32876744 10.32427867 40.66060682 9.65440671 42 9 C41.51104248 9.46245117 41.02208496 9.92490234 40.51831055 10.40136719 C38.20968835 14.35264146 38.62955324 18.08445081 38.70703125 22.578125 C38.71127609 23.5046991 38.71552094 24.43127319 38.71989441 25.38592529 C38.73666678 28.34091434 38.77431645 31.29521761 38.8125 34.25 C38.8275487 36.25519847 38.84123678 38.26040765 38.85351562 40.265625 C38.88656562 45.17734696 38.93833818 50.08855726 39 55 C38.67 55 38.34 55 38 55 C37.67 42.46 37.34 29.92 37 17 C34.36 17.99 31.72 18.98 29 20 C23.15151215 20.75839036 17.24218615 21.13008991 12.0625 18 C6.51960982 14.71879651 0.21434547 15.26890053 -6 16 C-8.60255521 16.87253296 -10.9901925 17.93619112 -13.46875 19.109375 C-18.17498411 20.76527219 -23.08053239 20.30429697 -28 20 C-27.505 18.515 -27.505 18.515 -27 17 C-26.13117188 16.89042969 -25.26234375 16.78085938 -24.3671875 16.66796875 C-15.20478926 15.40737033 -9.21155798 14.12603091 -3.2578125 6.78515625 C-1.74467875 4.63763412 -0.76128127 2.51222819 0 0 Z " fill="#F3F3F3" transform="translate(157,216)"/>
<path d="M0 0 C3.375 1.6875 3.375 1.6875 6 4 C6.875 6.75 6.875 6.75 7 9 C5.02 9 3.04 9 1 9 C0.67 8.34 0.34 7.68 0 7 C-1.99954746 6.95745644 -4.00041636 6.95919217 -6 7 C-7.27438431 8.05187652 -7.27438431 8.05187652 -7.1328125 10.43359375 C-7.13023438 11.42488281 -7.12765625 12.41617187 -7.125 13.4375 C-7.12757812 14.42621094 -7.13015625 15.41492188 -7.1328125 16.43359375 C-7.17228415 18.98909076 -7.17228415 18.98909076 -6 21 C-3.58380177 21.25030977 -3.58380177 21.25030977 -1 21 C-0.34 20.01 0.32 19.02 1 18 C4.125 17.8125 4.125 17.8125 7 18 C6.51007516 23.5116545 6.51007516 23.5116545 4.2578125 25.66796875 C1.67201388 27.19350046 0.11023428 27.46280082 -2.875 27.5 C-3.69742188 27.5309375 -4.51984375 27.561875 -5.3671875 27.59375 C-9.11045239 26.74957157 -11.71305523 25.03071189 -14 22 C-14.59895297 19.00216361 -14.80505921 16.9635856 -14.6875 14 C-14.70232422 13.30132812 -14.71714844 12.60265625 -14.73242188 11.8828125 C-14.66871617 7.91057439 -14.12626148 6.15339037 -11.58203125 3.0625 C-7.53018329 -0.17407447 -5.2073125 -0.43394271 0 0 Z " fill="#0B0B0B" transform="translate(129,350)"/>
<path d="M0 0 C2.9375 2.125 2.9375 2.125 5 5 C5.51521375 9.19531196 5.47609387 12.48134029 3 16 C-0.68497796 18.45665197 -3.71971786 18.70086491 -8 18 C-10.8100346 16.20636089 -12.50940468 14.98119065 -14 12 C-14.41204834 7.36445612 -13.87454146 4.69583902 -11 1 C-7.43954779 -1.79749817 -4.21263041 -1.10858695 0 0 Z " fill="#F6F6F6" transform="translate(140,202)"/>
<path d="M0 0 C2.85304674 2.43697743 4.77077463 4.19050885 5.2578125 8.03515625 C5.02271074 11.73455156 4.3224269 13.60917952 1.9375 16.5 C-2.13852444 18.58137418 -4.43905219 18.50677198 -9 18 C-12.23613354 16.25746655 -12.82395315 15.52814056 -14 12 C-14.375 8.625 -14.375 8.625 -14 5 C-9.49518824 -0.45319318 -6.92558284 -1.7607414 0 0 Z " fill="#F7F7F7" transform="translate(185,202)"/>
<path d="M0 0 C1.32 0 2.64 0 4 0 C4 3.96 4 7.92 4 12 C8.62 12 13.24 12 18 12 C18 8.04 18 4.08 18 0 C19.32 0 20.64 0 22 0 C22 9.24 22 18.48 22 28 C20.68 28 19.36 28 18 28 C18 23.71 18 19.42 18 15 C13.38 15 8.76 15 4 15 C4 19.29 4 23.58 4 28 C2.68 28 1.36 28 0 28 C0 18.76 0 9.52 0 0 Z " fill="#181818" transform="translate(139,301)"/>
<path d="M0 0 C4.56669669 3.7838344 6.93805318 7.16836369 7.5 13.125 C7.07011266 18.19767063 4.87123932 20.85936239 1.625 24.625 C-1.63572794 27.31864482 -5.50919375 27.14601862 -9.52734375 27.09375 C-14.08208518 26.53316644 -16.7544167 24.01166108 -19.6875 20.6875 C-21.37734251 16.36901358 -21.47210983 12.3857948 -20.8125 7.8125 C-16.58271836 -0.80372187 -8.85943037 -3.74064838 0 0 Z M-16.8125 6.8125 C-17.83598604 12.06377066 -17.70900031 16.31833281 -14.9375 20.9375 C-11.6537759 23.83490362 -9.25439184 24.20389558 -4.8515625 24.171875 C-1.43243302 23.5692698 0.11939052 21.44463933 2.1875 18.8125 C3.82513537 15.53722925 3.8395557 12.33866531 3.1875 8.8125 C1.66869864 5.82533719 -0.06864108 3.74250246 -2.8125 1.8125 C-8.19900259 0.1452492 -13.87058339 1.79835746 -16.8125 6.8125 Z " fill="#131313" transform="translate(186.8125,302.1875)"/>
<path d="M0 0 C4.29 0 8.58 0 13 0 C13 1.65 13 3.3 13 5 C12.01 5 11.02 5 10 5 C10 10.28 10 15.56 10 21 C11.32 21 12.64 21 14 21 C13.67 22.65 13.34 24.3 13 26 C8.71 26 4.42 26 0 26 C0 24.35 0 22.7 0 21 C1.32 21 2.64 21 4 21 C4 15.72 4 10.44 4 5 C2.68 5 1.36 5 0 5 C0 3.35 0 1.7 0 0 Z " fill="#060606" transform="translate(140,351)"/>
<path d="M0 0 C3.0625 2.375 3.0625 2.375 5 5 C5 5.66 5 6.32 5 7 C2.525 6.505 2.525 6.505 0 6 C0 5.34 0 4.68 0 4 C-2.64 4 -5.28 4 -8 4 C-8.33 5.65 -8.66 7.3 -9 9 C-8.40832031 9.24234375 -7.81664063 9.4846875 -7.20703125 9.734375 C1.89563449 13.59521202 1.89563449 13.59521202 5 17 C5.625 19.9375 5.625 19.9375 5 23 C2.95882914 26.02883418 1.46257223 27.70071921 -2.1953125 28.44921875 C-6.11970475 28.6370197 -8.3052543 28.4914055 -11.5625 26.1875 C-13 24 -13 24 -13 21 C-11.68 21 -10.36 21 -9 21 C-9 21.99 -9 22.98 -9 24 C-4.99745544 24.09181134 -4.99745544 24.09181134 -1 24 C0.29633621 22.93354885 0.29633621 22.93354885 0.0625 20.4375 C0.041875 19.633125 0.02125 18.82875 0 18 C-0.85464844 17.66226562 -1.70929688 17.32453125 -2.58984375 16.9765625 C-3.69457031 16.53054688 -4.79929687 16.08453125 -5.9375 15.625 C-7.03964844 15.18414062 -8.14179687 14.74328125 -9.27734375 14.2890625 C-12 13 -12 13 -13 11 C-13.34834811 7.2378404 -13.50642431 4.85871947 -11.5625 1.5625 C-7.76404365 -0.75363192 -4.32999498 -0.91684947 0 0 Z " fill="#141414" transform="translate(129,301)"/>
<path d="M0 0 C3 2.375 3 2.375 5 5 C5 5.66 5 6.32 5 7 C2.525 6.505 2.525 6.505 0 6 C0 5.34 0 4.68 0 4 C-4.65052872 3.73067479 -4.65052872 3.73067479 -9 5 C-8.88266728 7.44588949 -8.88266728 7.44588949 -8 10 C-5.8108583 11.36521094 -5.8108583 11.36521094 -3.125 12.125 C0.32007772 13.2599673 2.7388012 14.08232413 5 17 C5.68944734 20.96432218 5.32427783 22.51881355 3.0625 25.875 C-0.54593595 28.3788127 -2.60858281 28.67322197 -6.90625 28.4296875 C-9 28 -9 28 -11.5625 26.1875 C-13 24 -13 24 -13 21 C-11.68 21 -10.36 21 -9 21 C-9 21.99 -9 22.98 -9 24 C-4.99745544 24.09181134 -4.99745544 24.09181134 -1 24 C0.29633621 22.93354885 0.29633621 22.93354885 0.0625 20.4375 C0.041875 19.633125 0.02125 18.82875 0 18 C-0.85464844 17.66226562 -1.70929688 17.32453125 -2.58984375 16.9765625 C-3.69457031 16.53054688 -4.79929688 16.08453125 -5.9375 15.625 C-7.03964844 15.18414062 -8.14179688 14.74328125 -9.27734375 14.2890625 C-12 13 -12 13 -13 11 C-13.46315789 4.63157895 -13.46315789 4.63157895 -11.625 2.125 C-7.97016249 -0.40527212 -4.33430477 -0.76243984 0 0 Z " fill="#111111" transform="translate(257,301)"/>
<path d="M0 0 C6.27 0 12.54 0 19 0 C19 0.99 19 1.98 19 3 C16.69 3 14.38 3 12 3 C12 11.25 12 19.5 12 28 C10.68 28 9.36 28 8 28 C8 19.75 8 11.5 8 3 C5.36 3 2.72 3 0 3 C0 2.01 0 1.02 0 0 Z " fill="#141414" transform="translate(221,301)"/>
<path d="M0 0 C1.32 0 2.64 0 4 0 C4 3.96 4 7.92 4 12 C8.62 12 13.24 12 18 12 C18 12.33 18 12.66 18 13 C11.565 13.495 11.565 13.495 5 14 C4.67 18.62 4.34 23.24 4 28 C2.68 28 1.36 28 0 28 C0 18.76 0 9.52 0 0 Z " fill="#292929" transform="translate(139,301)"/>
<path d="M0 0 C0.66 0.33 1.32 0.66 2 1 C1.51202438 1.40845657 1.02404877 1.81691315 0.52128601 2.23774719 C-1.35307766 4.40900402 -1.36606828 5.36642088 -1.34057617 8.19604492 C-1.34034958 9.03668991 -1.34012299 9.8773349 -1.33988953 10.74345398 C-1.32440567 11.64666885 -1.30892181 12.54988373 -1.29296875 13.48046875 C-1.28660149 14.87245232 -1.28660149 14.87245232 -1.28010559 16.29255676 C-1.26330662 19.25783243 -1.22565216 22.2224296 -1.1875 25.1875 C-1.17245474 27.19725581 -1.15876606 29.20702227 -1.14648438 31.21679688 C-1.11339908 36.14479286 -1.06160833 41.07228138 -1 46 C-1.33 46 -1.66 46 -2 46 C-2.33 33.46 -2.66 20.92 -3 8 C-5.64 8.99 -8.28 9.98 -11 11 C-13.96875 11.29296875 -13.96875 11.29296875 -16.5 11.1875 C-17.3559375 11.16042969 -18.211875 11.13335937 -19.09375 11.10546875 C-20.03734375 11.05326172 -20.03734375 11.05326172 -21 11 C-20.67 10.01 -20.34 9.02 -20 8 C-19.29875 7.91363281 -18.5975 7.82726562 -17.875 7.73828125 C-11.00453742 6.72078068 -5.04264176 5.04264176 0 0 Z " fill="#B5B5B5" transform="translate(197,225)"/>
<path d="M0 0 C7.38804781 -0.36334661 7.38804781 -0.36334661 10 1.1875 C11.34419875 3.62386024 11.35131571 5.25973747 11 8 C9 10 9 10 6.8359375 10.1953125 C4.55729167 10.13020833 2.27864583 10.06510417 0 10 C0 6.7 0 3.4 0 0 Z " fill="#F6F6F6" transform="translate(202,304)"/>
<path d="M0 0 C0.33 0 0.66 0 1 0 C1 3.3 1 6.6 1 10 C2.44375 9.855625 3.8875 9.71125 5.375 9.5625 C6.18710938 9.48128906 6.99921875 9.40007812 7.8359375 9.31640625 C10.04272805 9.10909886 10.04272805 9.10909886 12 8 C12.33 9.32 12.66 10.64 13 12 C12.01 12.66 11.02 13.32 10 14 C11.98 17.63 13.96 21.26 16 25 C14.35 25 12.7 25 11 25 C10.16151196 23.54462432 9.32936066 22.08559627 8.5 20.625 C8.0359375 19.81289063 7.571875 19.00078125 7.09375 18.1640625 C6 16 6 16 6 14 C4.35 14 2.7 14 1 14 C1 13.67 1 13.34 1 13 C2.65 12.67 4.3 12.34 6 12 C3.03 11.505 3.03 11.505 0 11 C0 7.37 0 3.74 0 0 Z " fill="#2E2E2E" transform="translate(201,304)"/>
<path d="M0 0 C2.31 0 4.62 0 7 0 C7.66 0.66 8.32 1.32 9 2 C8.625 4.125 8.625 4.125 8 6 C6.35 6.33 4.7 6.66 3 7 C2.34 11.62 1.68 16.24 1 21 C0.67 21 0.34 21 0 21 C0 14.07 0 7.14 0 0 Z " fill="#E7E7E7" transform="translate(353,356)"/>
<path d="M0 0 C4.17582188 -0.33406575 6.58871916 -0.20564042 10.375 1.6875 C13 4 13 4 13.875 6.75 C13.936875 7.86375 13.936875 7.86375 14 9 C12.02 9 10.04 9 8 9 C7.67 8.34 7.34 7.68 7 7 C4.98330173 5.86649466 4.98330173 5.86649466 3 5 C3 4.01 3 3.02 3 2 C2.01 1.34 1.02 0.68 0 0 Z " fill="#0F0F0F" transform="translate(122,350)"/>
<path d="M0 0 C4.29 0 8.58 0 13 0 C13 1.65 13 3.3 13 5 C8.71 5 4.42 5 0 5 C0 3.35 0 1.7 0 0 Z " fill="#DADADA" transform="translate(192,356)"/>
<path d="M0 0 C0.66 0.495 1.32 0.99 2 1.5 C5.73361421 3.3668071 8.93504099 3.61806394 13 3 C16.40241824 1.6351132 16.40241824 1.6351132 19 0 C18.70488433 2.85278483 18.18767059 3.83578823 16 5.75 C11.92407601 7.44830166 8.35882909 7.61480772 4 7 C0.9375 5.5 0.9375 5.5 -1 4 C-0.67 2.68 -0.34 1.36 0 0 Z " fill="#0E0E0E" transform="translate(171,322)"/>
<path d="M0 0 C0.99 0.495 0.99 0.495 2 1 C1.98839844 2.07121094 1.97679687 3.14242188 1.96484375 4.24609375 C1.95546701 5.64322743 1.94636669 7.04036299 1.9375 8.4375 C1.92912109 9.14455078 1.92074219 9.85160156 1.91210938 10.58007812 C1.90346412 12.38693559 1.94779989 14.19387603 2 16 C2.33 16.33 2.66 16.66 3 17 C3.07226502 18.85287502 3.0838122 20.70833878 3.0625 22.5625 C3.05347656 23.57441406 3.04445312 24.58632813 3.03515625 25.62890625 C3.02355469 26.41136719 3.01195312 27.19382812 3 28 C2.01 28 1.02 28 0 28 C0 18.76 0 9.52 0 0 Z M1 17 C2 19 2 19 2 19 Z " fill="#0D0D0D" transform="translate(139,301)"/>
<path d="M0 0 C1.32 0.66 2.64 1.32 4 2 C4.28999491 6.92991345 4.19703098 10.09251769 1 14 C0.01 14 -0.98 14 -2 14 C-1.34 9.38 -0.68 4.76 0 0 Z " fill="#171717" transform="translate(190,310)"/>
<path d="M0 0 C3.96 1.98 7.92 3.96 12 6 C11.67 6.99 11.34 7.98 11 9 C6.87248551 8.39301257 3.6678852 6.96189209 0 5 C0 3.35 0 1.7 0 0 Z " fill="#E2E2E2" transform="translate(165,227)"/>
<path d="M0 0 C0.33 0 0.66 0 1 0 C1 4.62 1 9.24 1 14 C0.67 14 0.34 14 0 14 C-0.33 12.02 -0.66 10.04 -1 8 C-1.99 8.33 -2.98 8.66 -4 9 C-4.99 8.34 -5.98 7.68 -7 7 C-6.401875 6.773125 -5.80375 6.54625 -5.1875 6.3125 C-2.44106051 4.66463631 -1.52827786 2.76545517 0 0 Z " fill="#C8C8C8" transform="translate(229,363)"/>
<path d="M0 0 C3.3 0 6.6 0 10 0 C10.33 0.66 10.66 1.32 11 2 C8.47524538 3.26237731 6.68799534 3.09856404 3.875 3.0625 C2.96492187 3.05347656 2.05484375 3.04445312 1.1171875 3.03515625 C0.41851562 3.02355469 -0.28015625 3.01195312 -1 3 C-0.67 2.01 -0.34 1.02 0 0 Z " fill="#FCFCFC" transform="translate(177,233)"/>
<path d="M0 0 C2.96865509 2.54456151 4.3619751 5.48994665 6 9 C4.35 9 2.7 9 1 9 C-1.125 3.375 -1.125 3.375 0 0 Z " fill="#141414" transform="translate(211,320)"/>
<path d="M0 0 C2.375 0.6875 2.375 0.6875 5 2 C6.3125 4.625 6.3125 4.625 7 7 C5.35 6.67 3.7 6.34 2 6 C2 5.34 2 4.68 2 4 C1.34 4 0.68 4 0 4 C0 2.68 0 1.36 0 0 Z " fill="#1C1C1C" transform="translate(255,301)"/>
<path d="M0 0 C2.375 0.6875 2.375 0.6875 5 2 C6.3125 4.625 6.3125 4.625 7 7 C5.35 6.67 3.7 6.34 2 6 C2 5.34 2 4.68 2 4 C1.34 4 0.68 4 0 4 C0 2.68 0 1.36 0 0 Z " fill="#1C1C1C" transform="translate(127,301)"/>
<path d="M0 0 C6.75 -0.125 6.75 -0.125 9 1 C8.25 2.9375 8.25 2.9375 7 5 C4.875 5.75 4.875 5.75 3 6 C3 4.68 3 3.36 3 2 C2.01 1.34 1.02 0.68 0 0 Z " fill="#1B1B1B" transform="translate(122,350)"/>
<path d="M0 0 C1.32 0 2.64 0 4 0 C4 0.99 4 1.98 4 3 C4.99 3.33 5.98 3.66 7 4 C6.67 4.99 6.34 5.98 6 7 C3.5625 6.3125 3.5625 6.3125 1 5 C0.1875 2.375 0.1875 2.375 0 0 Z " fill="#1C1C1C" transform="translate(244,322)"/>
<path d="M0 0 C1.32 0 2.64 0 4 0 C4 0.99 4 1.98 4 3 C4.99 3.33 5.98 3.66 7 4 C6.67 4.99 6.34 5.98 6 7 C3.5625 6.3125 3.5625 6.3125 1 5 C0.1875 2.375 0.1875 2.375 0 0 Z " fill="#1C1C1C" transform="translate(116,322)"/>
<path d="M0 0 C1.9451 2.91765 2.45276317 4.62537285 3 8 C1.02 8 -0.96 8 -3 8 C-2.01 5.36 -1.02 2.72 0 0 Z " fill="#E4E4E4" transform="translate(331,359)"/>
<path d="M0 0 C1.9451 2.91765 2.45276317 4.62537285 3 8 C1.02 8 -0.96 8 -3 8 C-2.01 5.36 -1.02 2.72 0 0 Z " fill="#E5E5E5" transform="translate(252,359)"/>
<path d="M0 0 C0.66 0.33 1.32 0.66 2 1 C0.75453595 4.73639216 -0.63404953 5.18756513 -4 7 C-4.99 6.34 -5.98 5.68 -7 5 C-2.25 1.125 -2.25 1.125 0 0 Z " fill="#1F1F1F" transform="translate(175,301)"/>
<path d="M0 0 C-0.66 1.32 -1.32 2.64 -2 4 C-3.65 4 -5.3 4 -7 4 C-7.33 3.34 -7.66 2.68 -8 2 C-4.91190305 0.23537317 -3.76687864 0 0 0 Z " fill="#ECECEC" transform="translate(282,368)"/>
<path d="M0 0 C0.99 0.33 1.98 0.66 3 1 C3 2.98 3 4.96 3 7 C2.67 6.34 2.34 5.68 2 5 C1.34 5 0.68 5 0 5 C-0.5625 3.0625 -0.5625 3.0625 -1 1 C-0.67 0.67 -0.34 0.34 0 0 Z " fill="#0A0A0A" transform="translate(259,317)"/>
<path d="M0 0 C0.99 0.33 1.98 0.66 3 1 C3 2.98 3 4.96 3 7 C2.67 6.34 2.34 5.68 2 5 C1.34 5 0.68 5 0 5 C-0.5625 3.0625 -0.5625 3.0625 -1 1 C-0.67 0.67 -0.34 0.34 0 0 Z " fill="#0A0A0A" transform="translate(131,317)"/>
<path d="M0 0 C1.485 0.99 1.485 0.99 3 2 C2.67 3.32 2.34 4.64 2 6 C1.01 6 0.02 6 -1 6 C-1.042721 4.33388095 -1.04063832 2.66617115 -1 1 C-0.67 0.67 -0.34 0.34 0 0 Z " fill="#050505" transform="translate(117,304)"/>
</svg>
